<svg width="76" height="35" viewBox="0 0 76 35" fill="none" xmlns="http://www.w3.org/2000/svg">
<path fill-rule="evenodd" clip-rule="evenodd" d="M20 2.25531C20 1.00974 18.9903 0 17.7447 0H4.51062C2.01947 0 0 2.01947 0 4.51062V5V29.5106C0 32.272 2.23858 34.5106 5 34.5106H35C37.7614 34.5106 40 32.272 40 29.5106V9.51062C40 6.7492 37.7614 4.51062 35 4.51062H22.2553C21.0097 4.51062 20 3.50088 20 2.25531Z" fill="#11948A"/>
<path d="M53.7 25.08C53.7 25.3333 53.6133 25.5533 53.44 25.74C53.2667 25.9133 53.0467 26 52.78 26H52.24C51.9867 26 51.7667 25.9133 51.58 25.74C51.4067 25.5533 51.32 25.3333 51.32 25.08V20.68C51.32 20.52 51.2333 20.44 51.06 20.44H47.46C47.2867 20.44 47.2 20.52 47.2 20.68V25.08C47.2 25.3333 47.1067 25.5533 46.92 25.74C46.7467 25.9133 46.5333 26 46.28 26H45.72C45.4667 26 45.2467 25.9133 45.06 25.74C44.8867 25.5533 44.8 25.3333 44.8 25.08V13.4C44.8 13.1333 44.8867 12.9133 45.06 12.74C45.2467 12.5667 45.4667 12.48 45.72 12.48H46.28C46.5333 12.48 46.7467 12.5667 46.92 12.74C47.1067 12.9133 47.2 13.1333 47.2 13.4V17.78C47.2 17.9667 47.2867 18.06 47.46 18.06H51.06C51.2333 18.06 51.32 17.9667 51.32 17.78V13.4C51.32 13.1333 51.4067 12.9133 51.58 12.74C51.7667 12.5667 51.9867 12.48 52.24 12.48H52.78C53.0467 12.48 53.2667 12.5667 53.44 12.74C53.6133 12.9133 53.7 13.1333 53.7 13.4V25.08ZM64.2273 23.36C64.2273 23.84 64.1073 24.28 63.8673 24.68C63.6273 25.08 63.3073 25.4 62.9073 25.64C62.5073 25.88 62.0673 26 61.5873 26H57.9873C57.5073 26 57.0607 25.88 56.6473 25.64C56.2473 25.4 55.9273 25.08 55.6873 24.68C55.4473 24.28 55.3273 23.84 55.3273 23.36V13.4C55.3273 13.1333 55.414 12.9133 55.5873 12.74C55.774 12.5667 55.994 12.48 56.2473 12.48H56.8073C57.0607 12.48 57.274 12.5667 57.4473 12.74C57.634 12.9133 57.7273 13.1333 57.7273 13.4V23.36C57.7273 23.4267 57.754 23.4933 57.8073 23.56C57.8607 23.6133 57.9207 23.64 57.9873 23.64H61.5873C61.654 23.64 61.714 23.6133 61.7673 23.56C61.8207 23.4933 61.8473 23.4267 61.8473 23.36V13.4C61.8473 13.1333 61.934 12.9133 62.1073 12.74C62.294 12.5667 62.514 12.48 62.7673 12.48H63.3073C63.574 12.48 63.794 12.5667 63.9673 12.74C64.1407 12.9133 64.2273 13.1333 64.2273 13.4V23.36ZM74.7547 23.36C74.7547 23.84 74.6347 24.28 74.3947 24.68C74.1547 25.08 73.8347 25.4 73.4347 25.64C73.0347 25.88 72.5947 26 72.1147 26H66.7747C66.5214 26 66.3014 25.9133 66.1147 25.74C65.9414 25.5533 65.8547 25.3333 65.8547 25.08V13.4C65.8547 13.1333 65.9414 12.9133 66.1147 12.74C66.3014 12.5667 66.5214 12.48 66.7747 12.48H71.8347C72.328 12.48 72.768 12.6 73.1547 12.84C73.5547 13.08 73.8747 13.4 74.1147 13.8C74.3547 14.2 74.4747 14.6467 74.4747 15.14V17.52C74.4747 17.88 74.408 18.2133 74.2747 18.52C74.208 18.6667 74.2214 18.8133 74.3147 18.96C74.608 19.4 74.7547 19.8933 74.7547 20.44V23.36ZM72.1147 17.52V15.14C72.1147 15.06 72.0814 14.9933 72.0147 14.94C71.9614 14.8867 71.9014 14.86 71.8347 14.86H68.5147C68.3414 14.86 68.2547 14.9467 68.2547 15.12V17.52C68.2547 17.6933 68.3414 17.78 68.5147 17.78H71.8347C71.9014 17.78 71.9614 17.7533 72.0147 17.7C72.0814 17.6467 72.1147 17.5867 72.1147 17.52ZM72.3747 23.36V20.44C72.3747 20.2533 72.288 20.16 72.1147 20.16H68.5147C68.3414 20.16 68.2547 20.2467 68.2547 20.42V23.38C68.2547 23.5533 68.3414 23.64 68.5147 23.64H72.1147C72.1814 23.64 72.2414 23.6133 72.2947 23.56C72.348 23.4933 72.3747 23.4267 72.3747 23.36Z" fill="#D9D9D9"/>
<path d="M12.48 25.08C12.48 25.3333 12.3867 25.5533 12.2 25.74C12.0267 25.9133 11.82 26 11.58 26H4.7C4.46 26 4.24667 25.9133 4.06 25.74C3.88667 25.5533 3.8 25.3333 3.8 25.08V13.4C3.8 13.1333 3.88667 12.9133 4.06 12.74C4.24667 12.5667 4.46 12.48 4.7 12.48H11.58C11.82 12.48 12.0267 12.5667 12.2 12.74C12.3867 12.9133 12.48 13.1333 12.48 13.4V13.94C12.48 14.1933 12.3867 14.4133 12.2 14.6C12.0267 14.7733 11.82 14.86 11.58 14.86H6.42C6.26 14.86 6.18 14.9467 6.18 15.12V17.78C6.18 17.9667 6.26 18.06 6.42 18.06H10.86C11.1267 18.06 11.3467 18.1467 11.52 18.32C11.6933 18.4933 11.78 18.7067 11.78 18.96V19.52C11.78 19.7733 11.6933 19.9933 11.52 20.18C11.3467 20.3533 11.1267 20.44 10.86 20.44H6.42C6.26 20.44 6.18 20.52 6.18 20.68V23.38C6.18 23.5533 6.26 23.64 6.42 23.64H11.58C11.82 23.64 12.0267 23.7267 12.2 23.9C12.3867 24.0733 12.48 24.2933 12.48 24.56V25.08ZM23.2334 25.08C23.2334 25.3333 23.1401 25.5533 22.9534 25.74C22.7801 25.9133 22.5668 26 22.3134 26H21.7334C21.3734 26 21.1068 25.8467 20.9334 25.54L16.6734 18.16C16.6468 18.1067 16.6068 18.0933 16.5534 18.12C16.5001 18.1333 16.4734 18.16 16.4734 18.2V25.08C16.4734 25.3333 16.3801 25.5533 16.1934 25.74C16.0201 25.9133 15.8134 26 15.5734 26H15.0134C14.7601 26 14.5401 25.9133 14.3534 25.74C14.1801 25.5533 14.0934 25.3333 14.0934 25.08V13.4C14.0934 13.1333 14.1801 12.9133 14.3534 12.74C14.5401 12.5667 14.7601 12.48 15.0134 12.48H15.5934C15.9534 12.48 16.2201 12.6333 16.3934 12.94L20.6534 20.32C20.6934 20.3733 20.7334 20.3933 20.7734 20.38C20.8268 20.3667 20.8534 20.3333 20.8534 20.28V13.4C20.8534 13.1333 20.9401 12.9133 21.1134 12.74C21.3001 12.5667 21.5201 12.48 21.7734 12.48H22.3134C22.5668 12.48 22.7801 12.5667 22.9534 12.74C23.1401 12.9133 23.2334 13.1333 23.2334 13.4V25.08ZM35.1947 13.68L31.3147 25.38C31.2614 25.5533 31.148 25.7 30.9747 25.82C30.8147 25.94 30.6414 26 30.4547 26H29.6347C29.448 26 29.2747 25.94 29.1147 25.82C28.968 25.7 28.8614 25.5533 28.7947 25.38L24.9147 13.68C24.808 13.3867 24.848 13.1133 25.0347 12.86C25.208 12.6067 25.4547 12.48 25.7747 12.48H26.3547C26.7947 12.48 27.088 12.6867 27.2347 13.1L29.9347 21.34C30.0147 21.4333 30.088 21.4333 30.1547 21.34C30.4347 20.4733 30.7214 19.5867 31.0147 18.68C31.3214 17.76 31.608 16.9 31.8747 16.1C32.1414 15.2867 32.3614 14.6133 32.5347 14.08L32.8547 13.1C32.9214 12.9133 33.0347 12.7667 33.1947 12.66C33.368 12.54 33.548 12.48 33.7347 12.48H34.3147C34.6347 12.48 34.8814 12.6067 35.0547 12.86C35.2414 13.1 35.288 13.3733 35.1947 13.68Z" fill="#D9D9D9"/>
</svg>
